<?xml version="1.0" encoding="utf-8"?>
<!-- Generator: Adobe Illustrator 26.1.0, SVG Export Plug-In . SVG Version: 6.00 Build 0)  -->
<svg version="1.1" id="Слой_1" xmlns="http://www.w3.org/2000/svg" xmlns:xlink="http://www.w3.org/1999/xlink" x="0px" y="0px"
	 viewBox="0 0 512 512" style="enable-background:new 0 0 512 512;" xml:space="preserve">
<style type="text/css">
	.st0{fill:#6B6B6B;}
</style>
<g>
	<path class="st0" d="M142,208.7l52.7-126.3l-1.4,107.3l82-176.9l95.4,197.9c0,0-21.9-40.1-46.8-52.7c0,0,10.8,15,16.9,57.7
		c0,0-65.7-86.5-159.1-9c0,0,7.9-33.6,7-44.8C188.8,161.9,161,177.5,142,208.7z"/>
	<path class="st0" d="M126.2,326c0,0-54.1-64.9,9-181c0,0-118.9,97.7-48.7,247.9s239.6,97.2,239.6,97.2s198.3-77,88.5-304.4
		c0,0,6.6,80.8-67.6,114.4c0,0,33.7,12.2,49.8,47.8c0,0,25.2-40.2,34.8-64.6c0,0-19.4,104-84.5,156.2c0,0,17.4-8,20.9-6
		c0,0-31,33.7-77.5,41.8c0,0,25.6-9.9,24.9-63.7c0,0-59.3,79.5-159.1,7c0,0,44.8,30,78.5,24.9c0,0-124.8-25-130.3-120.3L126.2,326z"
		/>
</g>
</svg>
